<?xml version="1.0" standalone="no"?><!DOCTYPE svg PUBLIC "-//W3C//DTD SVG 1.1//EN" "http://www.w3.org/Graphics/SVG/1.1/DTD/svg11.dtd"><svg t="1560236253857" class="icon" style="" viewBox="0 0 1024 1024" version="1.1" xmlns="http://www.w3.org/2000/svg" p-id="735" xmlns:xlink="http://www.w3.org/1999/xlink" width="32" height="32"><defs><style type="text/css"></style></defs><path d="M440.808704 970.0352a62.464 62.464 0 0 0-41.5744-77.9008 390.2976 390.2976 0 0 1-196.736-137.9072 383.744 383.744 0 0 1-77.5936-232.5504c0-136.1152 69.4784-259.7632 185.856-330.752a62.464 62.464 0 0 0-65.024-106.5984 515.1488 515.1488 0 0 0-178.048 182.8608A511.6416 511.6416 0 0 0 0.002304 521.6768a507.648 507.648 0 0 0 102.7072 307.6608 516.1728 516.1728 0 0 0 260.1984 182.272 62.464 62.464 0 0 0 77.9008-41.5744zM574.440704 72.1152v67.5072c183.8848 29.952 324.6848 189.8496 324.6848 382.0544a385.5616 385.5616 0 0 1-242.5344 359.2192 62.464 62.464 0 0 0 46.6688 115.84 511.488 511.488 0 0 0 230.8352-185.216A509.0816 509.0816 0 0 0 1024.002304 521.6768c0-282.3168-229.6832-512-512-512a62.4384 62.4384 0 0 1 62.4384 62.4384z" fill="#009FE8" p-id="736"></path><path d="M449.563904 72.1152v757.7344a62.4384 62.4384 0 0 0 124.8768 0V139.6224A386.304 386.304 0 0 0 512.002304 134.5536a62.4384 62.4384 0 0 1-62.4384-62.4384z" fill="#009FE8" p-id="737"></path><path d="M512.002304 9.6768a62.4384 62.4384 0 0 0 0 124.8768c21.248 0 42.112 1.7408 62.4384 5.0688V72.1152A62.4384 62.4384 0 0 0 512.002304 9.6768z" fill="#D60050" p-id="738"></path></svg>