<?xml version="1.0" encoding="iso-8859-1"?>
<!-- Generator: Adobe Illustrator 17.0.0, SVG Export Plug-In . SVG Version: 6.00 Build 0)  -->
<!DOCTYPE svg PUBLIC "-//W3C//DTD SVG 1.1//EN" "http://www.w3.org/Graphics/SVG/1.1/DTD/svg11.dtd">
<svg version="1.1" id="&#x56FE;&#x5C42;_1" xmlns="http://www.w3.org/2000/svg" xmlns:xlink="http://www.w3.org/1999/xlink" x="0px"
	 y="0px" width="630px" height="30px" viewBox="0 0 630 30" style="enable-background:new 0 0 630 30;" xml:space="preserve">
<g>
	<g>
		<polygon style="fill:#7BD0F6;" points="459.466,24.521 170.534,24.521 157.034,13.834 127.251,13.834 115.084,1.667 0.624,1.667 
			0.624,0.667 115.498,0.667 127.665,12.834 157.382,12.834 170.882,23.521 459.118,23.521 472.618,12.834 502.335,12.834 
			514.502,0.667 629.376,0.667 629.376,1.667 514.916,1.667 502.749,13.834 472.966,13.834 		"/>
	</g>
	<g>
		<polygon style="fill:#1E346B;" points="459.466,29.333 170.534,29.333 157.034,18.646 127.251,18.646 115.084,6.479 0.624,6.479 
			0.624,5.479 115.498,5.479 127.665,17.646 157.382,17.646 170.882,28.333 459.118,28.333 472.618,17.646 502.335,17.646 
			514.502,5.479 629.376,5.479 629.376,6.479 514.916,6.479 502.749,18.646 472.966,18.646 		"/>
	</g>
</g>
</svg>
