<?xml version="1.0" encoding="iso-8859-1"?>
<!-- Generator: Adobe Illustrator 17.0.0, SVG Export Plug-In . SVG Version: 6.00 Build 0)  -->
<!DOCTYPE svg PUBLIC "-//W3C//DTD SVG 1.1//EN" "http://www.w3.org/Graphics/SVG/1.1/DTD/svg11.dtd">
<svg version="1.1" id="&#x56FE;&#x5C42;_1" xmlns="http://www.w3.org/2000/svg" xmlns:xlink="http://www.w3.org/1999/xlink" x="0px"
	 y="0px" width="24px" height="42px" viewBox="0 0 24 42" style="enable-background:new 0 0 24 42;" xml:space="preserve">
<polygon style="fill:#E8BC35;" points="3.314,4.268 0.314,7.268 0.314,17.268 3.314,20.268 6.314,17.268 6.314,7.268 "/>
<polygon style="fill:#E8BC35;" points="20.686,4.268 23.686,7.268 23.686,17.268 20.686,20.268 17.686,17.268 17.686,7.268 "/>
<polygon style="fill:#E8BC35;" points="20.022,3.56 17.022,0.56 7.022,0.56 4.022,3.56 7.022,6.56 17.022,6.56 "/>
<polygon style="fill:#E8BC35;" points="3.314,37.732 0.314,34.732 0.314,24.732 3.314,21.732 6.314,24.732 6.314,34.732 "/>
<polygon style="fill:#E8BC35;" points="20.686,37.732 23.686,34.732 23.686,24.732 20.686,21.732 17.686,24.732 17.686,34.732 "/>
<polygon style="fill:#E8BC35;" points="20.022,38.44 17.022,41.44 7.022,41.44 4.022,38.44 7.022,35.44 17.022,35.44 "/>
</svg>
